<svg width="39" height="37" viewBox="0 0 39 37" fill="none" xmlns="http://www.w3.org/2000/svg">
<path d="M32.1377 19.9837C32.1362 20.1476 32.0701 20.3042 31.9536 20.4196C31.8372 20.535 31.68 20.5997 31.5161 20.5997C31.3522 20.5997 31.195 20.535 31.0786 20.4196C30.9622 20.3042 30.896 20.1476 30.8945 19.9837C30.8945 19.6403 31.1728 19.3621 31.5162 19.3621C31.681 19.3621 31.8391 19.4276 31.9557 19.5442C32.0722 19.6608 32.1377 19.8189 32.1377 19.9837Z" fill="#FFC131"/>
<path d="M29.8486 21.7638C29.8486 21.5989 29.9141 21.4408 30.0307 21.3242C30.1473 21.2076 30.3054 21.1421 30.4703 21.1421C30.6352 21.1421 30.7933 21.2076 30.9099 21.3242C31.0265 21.4408 31.092 21.5989 31.092 21.7638C31.092 22.1071 30.8137 22.3854 30.4703 22.3854C30.1269 22.3854 29.8486 22.1071 29.8486 21.7638Z" fill="#FFDB70"/>
<path d="M32.8047 21.977C32.555 22.1384 32.2772 22.2515 31.9858 22.3102C32.0466 22.1344 32.0776 21.9497 32.0774 21.7637C32.0775 21.6951 32.0733 21.6267 32.0651 21.5587C32.1905 21.515 32.3103 21.4565 32.4218 21.3844C32.6916 21.21 32.9052 20.9615 33.0371 20.6687C33.1358 20.4497 33.1859 20.212 33.1842 19.9719C33.1825 19.7317 33.129 19.4947 33.0272 19.2772C32.9255 19.0596 32.778 18.8666 32.5948 18.7113C32.4116 18.556 32.197 18.4421 31.9657 18.3774C31.6564 18.291 31.3287 18.2956 31.022 18.3909C30.7153 18.4861 30.4425 18.6678 30.2366 18.9142C30.2102 18.9457 30.185 18.9782 30.1611 19.0116C29.8448 19.0468 29.5369 19.1362 29.251 19.2759C29.3655 18.909 29.5675 18.5754 29.8396 18.3039C30.1116 18.0323 30.4455 17.8309 30.8126 17.7169C31.2491 17.5813 31.7156 17.5747 32.1558 17.6978C32.596 17.8211 32.9914 18.0687 33.2941 18.4109C33.5969 18.7531 33.7945 19.1758 33.8632 19.6277C33.9318 20.0797 33.8684 20.5418 33.6806 20.9586C33.4928 21.3753 33.1887 21.729 32.8047 21.977ZM29.2793 19.7088L29.8611 19.7803C29.8748 19.6681 29.9 19.5575 29.9362 19.4504C29.7056 19.5032 29.4841 19.5904 29.2793 19.7088Z" fill="#FFC131"/>
<path d="M29.1789 19.7703C29.4305 19.6076 29.7106 19.4941 30.0044 19.4358C29.9365 19.6203 29.9019 19.8153 29.9022 20.0119C29.9021 20.0717 29.9053 20.1315 29.9118 20.1909C29.7889 20.2344 29.6715 20.2921 29.562 20.3628C29.2922 20.5372 29.0785 20.7857 28.9466 21.0786C28.8146 21.3714 28.7701 21.6962 28.8181 22.0138C28.8661 22.3313 29.0052 22.6283 29.2181 22.8689C29.4311 23.1095 29.7085 23.2834 30.0179 23.3699C30.3273 23.4563 30.6551 23.4517 30.9619 23.3565C31.2686 23.2612 31.5413 23.0795 31.7472 22.833C31.7736 22.8013 31.7988 22.7687 31.8229 22.7352C32.1395 22.6995 32.4475 22.6094 32.7334 22.4689C32.6404 22.7677 32.4892 23.0452 32.2886 23.2854C31.9956 23.6362 31.6075 23.8949 31.1709 24.0303C30.7344 24.1659 30.268 24.1726 29.8278 24.0494C29.3876 23.9262 28.9924 23.6786 28.6894 23.3364C28.3866 22.994 28.1891 22.5714 28.1206 22.1195C28.052 21.6676 28.1155 21.2055 28.3033 20.7887C28.491 20.372 28.795 20.0183 29.1789 19.7703Z" fill="#FFDB70"/>
<path d="M7.3402 4.84736C4.39239 4.3099 2.06409 4.87197 1.13483 6.48845C0.441467 7.68849 0.640449 9.28035 1.61485 10.9809C1.63465 11.0154 1.66104 11.0457 1.69253 11.0699C1.72402 11.0942 1.75998 11.1121 1.79837 11.1224C1.83675 11.1328 1.8768 11.1355 1.91624 11.1304C1.95567 11.1253 1.99371 11.1125 2.0282 11.0927C2.06268 11.0729 2.09292 11.0465 2.1172 11.015C2.14148 10.9836 2.15932 10.9476 2.1697 10.9092C2.18008 10.8708 2.1828 10.8308 2.17771 10.7913C2.17261 10.7519 2.1598 10.7139 2.14 10.6794C1.26201 9.14701 1.0897 7.7726 1.65793 6.78179C2.42924 5.44635 4.50727 4.93556 7.23148 5.4402C7.31037 5.45462 7.39175 5.43711 7.45773 5.39152C7.5237 5.34593 7.56887 5.276 7.58329 5.19711C7.5977 5.11823 7.58019 5.03684 7.53461 4.97086C7.48902 4.90489 7.41909 4.85972 7.3402 4.84531V4.84736ZM3.14721 13.0426C4.4616 14.4512 5.98349 15.6507 7.66021 16.5996C11.9353 19.0613 16.4811 19.7279 18.7376 18.1976C18.8037 18.1525 18.8491 18.0829 18.8639 18.0042C18.8788 17.9256 18.8617 17.8442 18.8166 17.7781C18.7714 17.712 18.7018 17.6666 18.6232 17.6518C18.5445 17.6369 18.4632 17.654 18.397 17.6991C16.3744 19.0715 12.044 18.4397 7.95561 16.0745C6.33541 15.1562 4.86476 13.9961 3.59441 12.6343C3.54001 12.575 3.46427 12.5398 3.38387 12.5363C3.30346 12.5328 3.22498 12.5615 3.16568 12.6159C3.10637 12.6703 3.07111 12.746 3.06765 12.8264C3.06419 12.9068 3.09281 12.9853 3.14721 13.0446V13.0426Z" fill="#FFDB70"/>
<path d="M18.0059 12.6732C19.9362 10.3942 20.6091 8.10073 19.6819 6.49656C19.0008 5.31498 17.5587 4.69136 15.6427 4.66675C15.5625 4.66675 15.4855 4.69863 15.4288 4.75537C15.372 4.81211 15.3401 4.88908 15.3401 4.96932C15.3401 5.04957 15.372 5.12653 15.4288 5.18328C15.4855 5.24002 15.5625 5.2719 15.6427 5.2719C17.3659 5.29446 18.6069 5.83192 19.167 6.80017C19.9362 8.13355 19.3352 10.1788 17.5525 12.2855C17.5269 12.3158 17.5076 12.3509 17.4955 12.3887C17.4835 12.4265 17.479 12.4662 17.4823 12.5058C17.4857 12.5453 17.4968 12.5838 17.515 12.619C17.5332 12.6543 17.5581 12.6856 17.5884 12.7112C17.6187 12.7368 17.6538 12.7561 17.6916 12.7682C17.7294 12.7802 17.7692 12.7847 17.8087 12.7814C17.8482 12.778 17.8867 12.767 17.922 12.7488C17.9572 12.7305 17.9885 12.7056 18.0141 12.6753L18.0059 12.6732ZM13.0477 4.94778C11.1537 5.37761 9.33739 6.09722 7.66292 7.0812C3.25044 9.63515 0.370324 13.3871 0.762134 16.1113C0.767926 16.1517 0.78162 16.1906 0.802435 16.2257C0.823249 16.2608 0.850777 16.2915 0.883445 16.316C0.916114 16.3404 0.953284 16.3582 0.992832 16.3684C1.03238 16.3785 1.07353 16.3807 1.11394 16.3749C1.15435 16.3691 1.19322 16.3554 1.22834 16.3346C1.26346 16.3138 1.29413 16.2863 1.31861 16.2536C1.34308 16.2209 1.36089 16.1838 1.371 16.1442C1.38111 16.1047 1.38334 16.0635 1.37754 16.0231C1.01445 13.6045 3.74276 10.0454 7.96447 7.60635C9.58422 6.65103 11.3417 5.95149 13.1749 5.53242C13.2137 5.52407 13.2505 5.50816 13.2831 5.4856C13.3158 5.46304 13.3437 5.43427 13.3652 5.40094C13.3867 5.3676 13.4015 5.33035 13.4086 5.29132C13.4157 5.25228 13.4151 5.21223 13.4067 5.17343C13.3984 5.13464 13.3825 5.09788 13.3599 5.06523C13.3374 5.03259 13.3086 5.00471 13.2752 4.98318C13.2419 4.96166 13.2047 4.94691 13.1656 4.93978C13.1266 4.93265 13.0865 4.93328 13.0477 4.94163V4.94778Z" fill="#FFDB70"/>
<path d="M5.88946 18.0007C6.91514 20.8172 8.55624 22.5588 10.4127 22.5588C11.7666 22.5588 13.018 21.6357 13.9944 20.011C14.0374 19.9428 14.0515 19.8602 14.0336 19.7815C14.0157 19.7029 13.9673 19.6345 13.899 19.5915C13.8307 19.5485 13.7482 19.5345 13.6695 19.5523C13.5908 19.5702 13.5225 19.6186 13.4795 19.6869C12.6015 21.1475 11.5246 21.9434 10.4148 21.9434C8.87214 21.9434 7.40132 20.3967 6.46795 17.7915C6.44074 17.7161 6.38472 17.6546 6.31221 17.6206C6.23969 17.5866 6.15662 17.5827 6.08127 17.6099C6.00591 17.6371 5.94446 17.6931 5.91041 17.7657C5.87636 17.8382 5.87252 17.9212 5.89972 17.9966L5.88946 18.0007ZM15.1206 17.4489C15.6663 15.6327 15.9367 13.745 15.9227 11.8487C15.9227 6.84128 14.1708 2.52726 11.6743 1.41748C11.6379 1.40131 11.5987 1.39247 11.559 1.39146C11.5192 1.39044 11.4796 1.39727 11.4424 1.41156C11.4053 1.42584 11.3713 1.44731 11.3425 1.47472C11.3136 1.50213 11.2905 1.53496 11.2743 1.57133C11.2416 1.64478 11.2395 1.72818 11.2684 1.8032C11.2972 1.87822 11.3547 1.9387 11.4281 1.97135C13.6539 2.9601 15.3257 7.05462 15.3257 11.8487C15.3394 13.6838 15.078 15.5107 14.5503 17.2684C14.5385 17.3062 14.5342 17.346 14.5377 17.3855C14.5413 17.425 14.5525 17.4635 14.5709 17.4986C14.5893 17.5337 14.6144 17.5649 14.6449 17.5904C14.6753 17.6158 14.7104 17.635 14.7483 17.6468C14.7861 17.6587 14.8259 17.663 14.8654 17.6594C14.9049 17.6559 14.9434 17.6446 14.9785 17.6262C15.0137 17.6079 15.0448 17.5827 15.0703 17.5523C15.0957 17.5219 15.1149 17.4867 15.1268 17.4489H15.1206ZM20.8049 17.1535C20.8049 16.8675 20.7201 16.5878 20.5612 16.35C20.4023 16.1122 20.1764 15.9268 19.9122 15.8174C19.6479 15.7079 19.3571 15.6793 19.0766 15.7351C18.796 15.7909 18.5383 15.9286 18.3361 16.1309C18.1338 16.3331 17.9961 16.5908 17.9403 16.8713C17.8845 17.1519 17.9131 17.4427 18.0226 17.7069C18.132 17.9712 18.3174 18.1971 18.5552 18.356C18.7931 18.5149 19.0727 18.5997 19.3587 18.5997C19.5486 18.5997 19.7367 18.5623 19.9122 18.4896C20.0876 18.4169 20.247 18.3104 20.3813 18.1761C20.5156 18.0418 20.6222 17.8824 20.6948 17.7069C20.7675 17.5315 20.8049 17.3434 20.8049 17.1535ZM20.1998 17.1535C20.1998 17.3198 20.1504 17.4824 20.058 17.6208C19.9656 17.7591 19.8343 17.8669 19.6806 17.9305C19.5269 17.9942 19.3578 18.0108 19.1946 17.9784C19.0315 17.9459 18.8816 17.8658 18.764 17.7482C18.6464 17.6306 18.5663 17.4807 18.5338 17.3176C18.5014 17.1544 18.518 16.9853 18.5817 16.8316C18.6453 16.6779 18.7531 16.5466 18.8914 16.4542C19.0298 16.3618 19.1924 16.3124 19.3587 16.3124C19.5818 16.3124 19.7957 16.401 19.9534 16.5588C20.1112 16.7165 20.1998 16.9304 20.1998 17.1535ZM1.44621 18.5997C1.73224 18.5997 2.01185 18.5149 2.24968 18.356C2.48751 18.1971 2.67288 17.9712 2.78234 17.7069C2.8918 17.4427 2.92044 17.1519 2.86463 16.8713C2.80883 16.5908 2.67109 16.3331 2.46884 16.1309C2.26658 15.9286 2.00889 15.7909 1.72835 15.7351C1.44782 15.6793 1.15703 15.7079 0.89277 15.8174C0.62851 15.9268 0.402642 16.1122 0.24373 16.35C0.0848187 16.5878 0 16.8675 0 17.1535C0 17.537 0.152368 17.9049 0.423585 18.1761C0.694803 18.4473 1.06265 18.5997 1.44621 18.5997ZM1.44621 17.9945C1.27987 17.9945 1.11726 17.9452 0.978944 17.8528C0.840632 17.7604 0.732832 17.629 0.669174 17.4753C0.605516 17.3217 0.588861 17.1526 0.621313 16.9894C0.653765 16.8263 0.733868 16.6764 0.851493 16.5588C0.969117 16.4411 1.11898 16.361 1.28213 16.3286C1.44528 16.2961 1.61439 16.3128 1.76807 16.3764C1.92175 16.4401 2.05311 16.5479 2.14553 16.6862C2.23794 16.8245 2.28727 16.9871 2.28727 17.1535C2.28727 17.3765 2.19866 17.5905 2.04093 17.7482C1.8832 17.9059 1.66927 17.9945 1.44621 17.9945Z" fill="#FFDB70"/>
<path d="M10.412 2.89242C10.6981 2.89242 10.9777 2.8076 11.2155 2.64869C11.4533 2.48978 11.6387 2.26391 11.7482 1.99965C11.8576 1.73539 11.8863 1.44461 11.8305 1.16407C11.7747 0.883533 11.6369 0.625842 11.4347 0.423586C11.2324 0.22133 10.9747 0.0835915 10.6942 0.0277892C10.4136 -0.0280132 10.1229 0.000626687 9.85859 0.110087C9.59433 0.219547 9.36846 0.404912 9.20955 0.64274C9.05064 0.880568 8.96582 1.16018 8.96582 1.44621C8.96582 1.82977 9.11819 2.19762 9.38941 2.46884C9.66062 2.74005 10.0285 2.89242 10.412 2.89242ZM10.412 2.28727C10.2457 2.28727 10.0831 2.23794 9.94476 2.14553C9.80645 2.05311 9.69865 1.92175 9.63499 1.76807C9.57134 1.61439 9.55468 1.44528 9.58713 1.28213C9.61959 1.11898 9.69969 0.969117 9.81731 0.851493C9.93494 0.733869 10.0848 0.653766 10.2479 0.621314C10.4111 0.588861 10.5802 0.605517 10.7339 0.669175C10.8876 0.732832 11.0189 0.840633 11.1113 0.978944C11.2038 1.11726 11.2531 1.27987 11.2531 1.44621C11.2531 1.66927 11.1645 1.8832 11.0067 2.04093C10.849 2.19866 10.6351 2.28727 10.412 2.28727ZM10.6336 12.8703C10.4314 12.9155 10.2203 12.8997 10.0271 12.8248C9.83393 12.75 9.66731 12.6194 9.54839 12.4498C9.42948 12.2801 9.36362 12.0789 9.35917 11.8718C9.35472 11.6646 9.41187 11.4608 9.52339 11.2862C9.63491 11.1116 9.79576 10.974 9.98556 10.8909C10.1754 10.8078 10.3856 10.783 10.5895 10.8195C10.7935 10.856 10.982 10.9523 11.1311 11.096C11.2803 11.2398 11.3835 11.4247 11.4275 11.6271C11.4861 11.8972 11.4356 12.1795 11.2869 12.4124C11.1381 12.6453 10.9033 12.8099 10.6336 12.8703Z" fill="#FFDB70"/>
<path d="M36.8184 7.47729C37.5193 7.47735 38.0877 8.04589 38.0879 8.74683V29.5076C38.0879 30.2087 37.5195 30.7774 36.8184 30.7791H24.4238V32.3445L24.4111 32.4724C24.386 32.5988 24.3243 32.7155 24.2314 32.8074C24.2187 32.8201 24.2034 32.8337 24.1875 32.8464C24.0697 32.9449 23.9218 33.0007 23.7676 33.0007H17.4395C17.2658 33.0007 17.1002 32.9301 16.9775 32.8074V32.8064C16.8532 32.6837 16.7842 32.5162 16.7842 32.3425V30.7791H4.38672C3.68556 30.7775 3.1178 30.2087 3.11621 29.5076V23.322H4.02441V26.4968H37.1836V8.74683C37.1819 8.54626 37.0199 8.38437 36.8193 8.38257H21.2129V7.47729H36.8184ZM17.6885 32.0935H23.5195V30.7791H17.6885V32.0935ZM4.02441 29.5056C4.02441 29.708 4.18692 29.8712 4.3877 29.8728H36.8193C37.0199 29.871 37.182 29.7079 37.1836 29.5056V27.4021H4.02441V29.5056ZM22.2871 27.614C22.8448 27.6252 23.291 28.0811 23.291 28.6404C23.291 29.1981 22.8448 29.6536 22.2871 29.6648H18.9219C18.3627 29.6536 17.917 29.1981 17.917 28.6404C17.917 28.0811 18.3626 27.6252 18.9219 27.614H22.2871ZM18.9219 28.5212C18.8725 28.5197 18.8277 28.548 18.8086 28.5925C18.7895 28.6371 18.8009 28.6903 18.8359 28.7253C18.8582 28.7475 18.8901 28.7595 18.9219 28.7595H22.2871C22.319 28.7595 22.3501 28.7477 22.374 28.7253C22.4074 28.6903 22.4165 28.6391 22.3975 28.5945C22.3799 28.5499 22.3349 28.5196 22.2871 28.5212H18.9219ZM34.5488 13.7029C34.6715 13.6997 34.7897 13.7464 34.8789 13.8308C34.9664 13.9168 35.0165 14.0325 35.0166 14.155C35.0166 14.2777 34.9665 14.3958 34.8789 14.4802C34.7897 14.5663 34.6715 14.6129 34.5488 14.6082H30.4062C30.1609 14.6018 29.9668 14.4004 29.9668 14.155C29.967 13.9114 30.161 13.7109 30.4062 13.7029H34.5488ZM34.5498 11.8992C34.6722 11.8961 34.7914 11.942 34.8789 12.0261C34.9665 12.1121 35.0165 12.2303 35.0166 12.3513C35.0166 12.474 34.9665 12.5924 34.8789 12.6785C34.7914 12.7627 34.6722 12.8085 34.5498 12.8054L34.5508 12.8044H26.2637V12.8054C26.1411 12.8086 26.0228 12.7628 25.9336 12.6785C25.8459 12.5924 25.7959 12.474 25.7959 12.3513C25.796 12.2303 25.846 12.1121 25.9336 12.0261C26.0228 11.9418 26.1411 11.896 26.2637 11.8992H34.5498ZM34.5498 10.0955C34.6723 10.0924 34.7914 10.1385 34.8789 10.2244C34.9666 10.3088 35.0166 10.4269 35.0166 10.5496C35.0165 10.6722 34.9665 10.7888 34.8789 10.8748C34.7914 10.9589 34.6722 11.0048 34.5498 11.0017L34.5508 11.0007H26.2637V11.0017C26.1411 11.0049 26.0228 10.959 25.9336 10.8748C25.846 10.7888 25.796 10.6722 25.7959 10.5496C25.7959 10.4269 25.846 10.3088 25.9336 10.2244C26.0228 10.1383 26.141 10.0923 26.2637 10.0955H34.5498Z" fill="#FFDB70"/>
<path d="M15.5625 34.3496H25.4365C26.1054 34.3506 26.5861 34.7883 26.6445 35.2725L26.6504 35.3701V36.6172C26.6494 36.6187 26.647 36.6211 26.6426 36.625C26.6297 36.6363 26.6046 36.6501 26.5684 36.6504H14.4316C14.3954 36.6504 14.3702 36.6371 14.3574 36.626C14.3527 36.6218 14.3505 36.6186 14.3496 36.6172V35.3691C14.3506 34.8815 14.7877 34.4129 15.4316 34.3555L15.5625 34.3496Z" stroke="#FFDB70" stroke-width="0.7"/>
</svg>
