<svg width="24" height="24" viewBox="0 0 24 24" fill="none" xmlns="http://www.w3.org/2000/svg">
<path d="M21.752 3.5C21.7844 3.49989 21.8166 3.50622 21.8467 3.51855C21.8768 3.53098 21.9047 3.54921 21.9277 3.57227C21.9508 3.59533 21.969 3.62316 21.9814 3.65332C21.9938 3.68338 22.0001 3.71556 22 3.74805V17.25C22 17.3163 21.9736 17.3799 21.9268 17.4268C21.8799 17.4736 21.8163 17.5 21.75 17.5C16.715 17.5 14.1318 18.3436 12.5 19.7568V7.56641C12.8447 6.26557 13.6338 5.28243 15.0586 4.60156C16.441 3.94107 18.429 3.56281 21.1895 3.50684L21.752 3.5ZM2 3.74805C1.99989 3.71556 2.00622 3.68338 2.01855 3.65332C2.03098 3.62316 2.0492 3.59533 2.07227 3.57227C2.09533 3.5492 2.12316 3.53098 2.15332 3.51855C2.16817 3.51246 2.18355 3.50798 2.19922 3.50488L2.24805 3.5C5.30332 3.51372 7.46681 3.89703 8.94141 4.60156C10.3662 5.28243 11.1553 6.26557 11.5 7.56641V19.7578C9.87092 18.3491 7.28217 17.5 2.25 17.5C2.16581 17.5 2.11707 17.4707 2.08203 17.4297C2.04067 17.3811 2 17.2905 2 17.1592V3.74805Z" stroke="#FFDB70"/>
</svg>
