<svg width="100" height="100" viewBox="0 0 100 100" fill="none" xmlns="http://www.w3.org/2000/svg">
<rect x="0.5" y="0.5" width="99" height="99" rx="7.5" fill="url(#paint0_linear_149_414)" stroke="#2B2B2C"/>
<path d="M42.6183 31.3094C35.9946 30.0813 30.763 31.3657 28.6749 35.0594C27.117 37.8016 27.5641 41.4391 29.7535 45.325C29.798 45.4038 29.8573 45.4729 29.9281 45.5284C29.9988 45.5839 30.0796 45.6247 30.1659 45.6484C30.2521 45.6721 30.3421 45.6783 30.4307 45.6667C30.5193 45.655 30.6048 45.6258 30.6823 45.5805C30.7598 45.5353 30.8277 45.4749 30.8823 45.403C30.9369 45.331 30.9769 45.2489 31.0003 45.1612C31.0236 45.0734 31.0297 44.9819 31.0183 44.8918C31.0068 44.8017 30.978 44.7148 30.9335 44.636C28.9607 41.1344 28.5735 37.9938 29.8503 35.7297C31.5834 32.6782 36.2527 31.511 42.374 32.6641C42.5512 32.6971 42.7341 32.657 42.8824 32.5529C43.0306 32.4487 43.1321 32.2889 43.1645 32.1086C43.1969 31.9284 43.1575 31.7424 43.0551 31.5916C42.9527 31.4409 42.7955 31.3377 42.6183 31.3047V31.3094ZM33.1967 50.036C36.1501 53.2548 39.5698 55.9958 43.3373 58.1641C52.9433 63.7891 63.1577 65.3125 68.228 61.8157C68.3765 61.7125 68.4787 61.5535 68.5119 61.3737C68.5452 61.194 68.5069 61.0081 68.4054 60.8571C68.304 60.706 68.1477 60.6021 67.9709 60.5683C67.7941 60.5345 67.6114 60.5734 67.4628 60.6766C62.918 63.8125 53.1876 62.3688 44.0011 56.9641C40.3605 54.8658 37.056 52.215 34.2016 49.1032C34.0793 48.9677 33.9091 48.8871 33.7285 48.8792C33.5478 48.8713 33.3715 48.9367 33.2382 49.061C33.105 49.1853 33.0257 49.3584 33.0179 49.5421C33.0102 49.7258 33.0745 49.9052 33.1967 50.0407V50.036Z" fill="#47848F"/>
<path d="M66.5822 49.1923C70.9196 43.9845 72.4315 38.7438 70.3481 35.0782C68.8178 32.3782 65.5774 30.9532 61.2722 30.897C61.0919 30.897 60.919 30.9698 60.7915 31.0995C60.664 31.2291 60.5923 31.405 60.5923 31.5884C60.5923 31.7718 60.664 31.9476 60.7915 32.0773C60.919 32.2069 61.0919 32.2798 61.2722 32.2798C65.1441 32.3313 67.9328 33.5595 69.1911 35.772C70.9196 38.8188 69.5691 43.4923 65.5635 48.3063C65.506 48.3756 65.4625 48.4557 65.4354 48.5421C65.4084 48.6284 65.3983 48.7193 65.4058 48.8097C65.4133 48.9 65.4382 48.9879 65.4791 49.0684C65.52 49.149 65.5761 49.2205 65.6442 49.279C65.7123 49.3375 65.7911 49.3817 65.876 49.4093C65.9609 49.4368 66.0503 49.4471 66.1391 49.4394C66.2279 49.4318 66.3144 49.4065 66.3936 49.3649C66.4728 49.3233 66.5431 49.2662 66.6006 49.197L66.5822 49.1923ZM55.4413 31.5392C51.1855 32.5213 47.1042 34.1657 43.3417 36.4142C33.427 42.2501 26.9554 50.8235 27.8358 57.0485C27.8488 57.1409 27.8796 57.2297 27.9263 57.3099C27.9731 57.3902 28.035 57.4603 28.1084 57.5162C28.1818 57.5721 28.2653 57.6128 28.3542 57.6359C28.443 57.659 28.5355 57.6641 28.6263 57.6509C28.7171 57.6376 28.8044 57.6064 28.8833 57.5588C28.9622 57.5112 29.0312 57.4483 29.0862 57.3737C29.1412 57.299 29.1812 57.2141 29.2039 57.1237C29.2266 57.0333 29.2316 56.9393 29.2186 56.847C28.4027 51.3204 34.5332 43.1876 44.0193 37.6142C47.6589 35.4312 51.608 33.8327 55.7271 32.8751C55.8143 32.856 55.8969 32.8197 55.9703 32.7681C56.0436 32.7166 56.1063 32.6508 56.1546 32.5746C56.203 32.4985 56.2361 32.4134 56.2521 32.3242C56.2682 32.235 56.2667 32.1434 56.248 32.0548C56.2292 31.9661 56.1935 31.8821 56.1428 31.8075C56.0921 31.7329 56.0274 31.6692 55.9525 31.62C55.8776 31.5709 55.7939 31.5372 55.7062 31.5209C55.6185 31.5046 55.5285 31.506 55.4413 31.5251V31.5392Z" fill="#47848F"/>
<path d="M39.3595 61.3658C41.6642 67.8017 45.3517 71.7814 49.5232 71.7814C52.5653 71.7814 55.3771 69.6721 57.5711 65.9596C57.6677 65.8035 57.6994 65.6149 57.6592 65.4351C57.619 65.2553 57.5102 65.0992 57.3568 65.001C57.2034 64.9027 57.0179 64.8705 56.8411 64.9114C56.6643 64.9523 56.5107 65.0629 56.4142 65.2189C54.4414 68.5564 52.0214 70.3752 49.5278 70.3752C46.0615 70.3752 42.7566 66.8408 40.6593 60.8877C40.5982 60.7155 40.4723 60.5751 40.3094 60.4973C40.1464 60.4195 39.9598 60.4107 39.7905 60.4728C39.6212 60.535 39.4831 60.663 39.4066 60.8287C39.3301 60.9944 39.3214 61.1842 39.3825 61.3564L39.3595 61.3658ZM60.1017 60.1049C61.3279 55.9548 61.9354 51.6412 61.9039 47.308C61.9039 35.8658 57.9675 26.008 52.3579 23.472C52.2762 23.4351 52.1881 23.4149 52.0987 23.4126C52.0093 23.4103 51.9204 23.4259 51.8369 23.4585C51.7535 23.4912 51.6771 23.5402 51.6123 23.6028C51.5475 23.6655 51.4954 23.7405 51.4591 23.8236C51.3857 23.9914 51.381 24.182 51.4458 24.3534C51.5106 24.5249 51.6398 24.6631 51.8048 24.7377C56.806 26.997 60.5626 36.3533 60.5626 47.308C60.5933 51.5014 60.006 55.6759 58.8203 59.6924C58.7936 59.7789 58.784 59.8698 58.792 59.9601C58.7999 60.0504 58.8252 60.1382 58.8665 60.2185C58.9078 60.2988 58.9643 60.37 59.0327 60.4281C59.1011 60.4863 59.18 60.5301 59.2651 60.5572C59.3501 60.5843 59.4396 60.5941 59.5283 60.586C59.6171 60.5779 59.7034 60.5522 59.7824 60.5102C59.8614 60.4681 59.9314 60.4107 59.9886 60.3412C60.0457 60.2717 60.0889 60.1913 60.1155 60.1049H60.1017ZM72.8742 59.4299C72.8742 58.7763 72.6837 58.1373 72.3266 57.5939C71.9695 57.0504 71.462 56.6269 70.8682 56.3767C70.2744 56.1266 69.621 56.0612 68.9907 56.1887C68.3603 56.3162 67.7813 56.6309 67.3268 57.0931C66.8724 57.5553 66.5629 58.1441 66.4375 58.7851C66.3121 59.4262 66.3764 60.0907 66.6224 60.6945C66.8684 61.2984 67.2849 61.8145 67.8193 62.1776C68.3536 62.5407 68.9819 62.7346 69.6246 62.7346C70.0514 62.7346 70.4739 62.6491 70.8682 62.483C71.2625 62.3169 71.6207 62.0735 71.9225 61.7666C72.2242 61.4598 72.4636 61.0955 72.6269 60.6945C72.7902 60.2936 72.8742 59.8638 72.8742 59.4299ZM71.5145 59.4299C71.5145 59.81 71.4036 60.1815 71.196 60.4976C70.9883 60.8137 70.6932 61.06 70.3479 61.2054C70.0025 61.3509 69.6225 61.389 69.256 61.3148C68.8894 61.2407 68.5526 61.0576 68.2883 60.7888C68.024 60.5201 67.844 60.1776 67.7711 59.8048C67.6982 59.432 67.7356 59.0456 67.8787 58.6944C68.0217 58.3432 68.2639 58.0431 68.5747 57.8319C68.8855 57.6207 69.2509 57.508 69.6246 57.508C70.1259 57.508 70.6065 57.7105 70.961 58.0709C71.3154 58.4313 71.5145 58.9202 71.5145 59.4299ZM29.3756 62.7346C30.0183 62.7346 30.6466 62.5407 31.181 62.1776C31.7154 61.8145 32.1319 61.2984 32.3778 60.6945C32.6238 60.0907 32.6881 59.4262 32.5628 58.7851C32.4374 58.1441 32.1279 57.5553 31.6734 57.0931C31.2189 56.6309 30.6399 56.3162 30.0096 56.1887C29.3792 56.0612 28.7258 56.1266 28.132 56.3767C27.5382 56.6269 27.0307 57.0504 26.6736 57.5939C26.3166 58.1373 26.126 58.7763 26.126 59.4299C26.126 60.3063 26.4683 61.1469 27.0778 61.7666C27.6872 62.3864 28.5137 62.7346 29.3756 62.7346ZM29.3756 61.3517C29.0018 61.3517 28.6364 61.239 28.3256 61.0278C28.0149 60.8167 27.7726 60.5165 27.6296 60.1653C27.4866 59.8142 27.4491 59.4277 27.5221 59.0549C27.595 58.6821 27.775 58.3397 28.0393 58.0709C28.3036 57.8021 28.6403 57.6191 29.0069 57.5449C29.3735 57.4708 29.7535 57.5088 30.0988 57.6543C30.4441 57.7997 30.7393 58.0461 30.9469 58.3621C31.1546 58.6782 31.2654 59.0498 31.2654 59.4299C31.2654 59.9396 31.0663 60.4284 30.7119 60.7888C30.3575 61.1493 29.8768 61.3517 29.3756 61.3517Z" fill="#47848F"/>
<path d="M49.523 26.8423C50.1658 26.8423 50.794 26.6485 51.3284 26.2853C51.8628 25.9222 52.2793 25.4061 52.5253 24.8022C52.7713 24.1984 52.8356 23.5339 52.7102 22.8929C52.5848 22.2518 52.2753 21.663 51.8209 21.2008C51.3664 20.7387 50.7874 20.4239 50.157 20.2964C49.5267 20.1689 48.8733 20.2343 48.2795 20.4845C47.6857 20.7346 47.1782 21.1582 46.8211 21.7016C46.464 22.2451 46.2734 22.884 46.2734 23.5376C46.2734 24.4141 46.6158 25.2546 47.2252 25.8744C47.8346 26.4941 48.6612 26.8423 49.523 26.8423ZM49.523 25.4595C49.1493 25.4595 48.7839 25.3468 48.4731 25.1356C48.1623 24.9244 47.9201 24.6242 47.7771 24.2731C47.634 23.9219 47.5966 23.5355 47.6695 23.1627C47.7424 22.7899 47.9224 22.4474 48.1867 22.1786C48.451 21.9098 48.7878 21.7268 49.1544 21.6527C49.521 21.5785 49.9009 21.6166 50.2463 21.762C50.5916 21.9075 50.8867 22.1538 51.0944 22.4699C51.3021 22.7859 51.4129 23.1575 51.4129 23.5376C51.4129 24.0473 51.2138 24.5361 50.8594 24.8966C50.505 25.257 50.0243 25.4595 49.523 25.4595ZM50.0209 49.6423C49.5665 49.7457 49.0923 49.7095 48.6582 49.5385C48.2241 49.3674 47.8497 49.0691 47.5825 48.6814C47.3153 48.2937 47.1673 47.8341 47.1573 47.3607C47.1473 46.8874 47.2757 46.4217 47.5263 46.0227C47.7769 45.6236 48.1383 45.3093 48.5648 45.1194C48.9913 44.9295 49.4636 44.8727 49.9218 44.9561C50.3801 45.0396 50.8037 45.2595 51.1389 45.5881C51.4741 45.9166 51.7058 46.339 51.8047 46.8017C51.9366 47.4187 51.823 48.0638 51.4888 48.596C51.1546 49.1283 50.6268 49.5044 50.0209 49.6423Z" fill="#47848F"/>
<defs>
<linearGradient id="paint0_linear_149_414" x1="50" y1="0" x2="50" y2="100" gradientUnits="userSpaceOnUse">
<stop stop-color="#D9EDED" stop-opacity="0.1"/>
<stop offset="1" stop-color="#CCEBEB" stop-opacity="0.01"/>
</linearGradient>
</defs>
</svg>
