<svg width="100" height="100" viewBox="0 0 100 100" fill="none" xmlns="http://www.w3.org/2000/svg">
<rect x="0.5" y="0.5" width="99" height="99" rx="7.5" fill="url(#paint0_linear_150_458)" stroke="#2B2B2C"/>
<path d="M50 51.6858C52.4594 51.6858 54.4531 49.8117 54.4531 47.4999C54.4531 45.1881 52.4594 43.314 50 43.314C47.5406 43.314 45.5469 45.1881 45.5469 47.4999C45.5469 49.8117 47.5406 51.6858 50 51.6858Z" fill="#61DAFB"/>
<path d="M66.9141 40.5968C66.0547 40.303 65.1562 40.0093 64.2188 39.7522C64.4531 38.871 64.6484 37.9897 64.8047 37.1452C65.625 32.2983 64.7266 28.8835 62.2266 27.5616C61.4844 27.1577 60.6641 26.9741 59.7266 26.9741C56.9922 26.9741 53.5156 28.8835 50 32.078C46.4844 28.8835 43.0078 26.9741 40.2734 26.9741C39.3359 26.9741 38.5156 27.1577 37.7734 27.5616C35.2734 28.9202 34.375 32.3351 35.1953 37.1452C35.3516 37.9897 35.5469 38.871 35.7812 39.7522C34.8438 40.0093 33.9453 40.2663 33.0859 40.5968C28.2031 42.3593 25.5469 44.7827 25.5469 47.4999C25.5469 50.2171 28.2422 52.6405 33.0859 54.403C33.9453 54.6968 34.8438 54.9905 35.7812 55.2476C35.5469 56.1288 35.3516 57.0101 35.1953 57.8546C34.375 62.7015 35.2734 66.1163 37.7734 67.4382C38.5156 67.8421 39.3359 68.0257 40.2734 68.0257C43.0469 68.0257 46.5234 66.1163 50 62.9218C53.5156 66.1163 56.9922 68.0257 59.7266 68.0257C60.6641 68.0257 61.4844 67.8421 62.2266 67.4382C64.7266 66.0796 65.625 62.6647 64.8047 57.8546C64.6484 57.0101 64.4531 56.1288 64.2188 55.2476C65.1562 54.9905 66.0547 54.7335 66.9141 54.403C71.7969 52.6405 74.4531 50.2171 74.4531 47.4999C74.4531 44.7827 71.7969 42.3593 66.9141 40.5968ZM61.1328 29.3976C62.7344 30.2788 63.2812 32.996 62.6172 36.8515C62.5 37.6226 62.3047 38.4304 62.0703 39.2749C60.0391 38.8343 57.8906 38.5405 55.625 38.3569C54.2969 36.5944 52.9297 35.0155 51.5625 33.5835C54.4531 30.903 57.3828 29.0671 59.7656 29.0671C60.2734 29.0671 60.7422 29.1772 61.1328 29.3976ZM56.7578 51.1718C56.0547 52.3468 55.2344 53.5218 54.375 54.6968C52.9297 54.8069 51.4844 54.8437 50 54.8437C48.4766 54.8437 47.0312 54.8069 45.625 54.6968C44.7656 53.5218 43.9844 52.3468 43.2812 51.1718C42.5391 49.9601 41.8359 48.7116 41.2109 47.4999C41.8359 46.2882 42.5391 45.0397 43.2812 43.828C43.9844 42.653 44.8047 41.478 45.6641 40.303C47.1094 40.1929 48.5547 40.1562 50.0391 40.1562C51.5625 40.1562 53.0078 40.1929 54.4141 40.303C55.2734 41.478 56.0547 42.653 56.7578 43.828C57.5 45.0397 58.2031 46.2882 58.8281 47.4999C58.1641 48.7116 57.5 49.9233 56.7578 51.1718ZM60 49.9601C60.5859 51.2452 61.0547 52.4937 61.4844 53.7421C60.1562 54.0358 58.75 54.2562 57.2656 54.4397C57.7344 53.7421 58.2422 53.0077 58.6719 52.2366C59.1406 51.4655 59.5703 50.6944 60 49.9601ZM50 59.9108C49.0625 58.9562 48.1641 57.928 47.3047 56.8632C48.2031 56.8999 49.1016 56.9366 50 56.9366C50.8984 56.9366 51.7969 56.8999 52.6953 56.8632C51.8359 57.928 50.9375 58.9562 50 59.9108ZM42.7344 54.403C41.25 54.2194 39.8437 53.9991 38.5156 53.7054C38.9453 52.4937 39.4141 51.2085 40 49.9233C40.4297 50.6577 40.8594 51.4288 41.3281 52.1632C41.7969 52.971 42.2656 53.6687 42.7344 54.403ZM40 45.0397C39.4141 43.7546 38.9453 42.5062 38.5156 41.2577C39.8437 40.964 41.25 40.7437 42.7344 40.5601C42.2656 41.2577 41.7578 41.9921 41.3281 42.7632C40.8594 43.5343 40.4297 44.3054 40 45.0397ZM50 35.089C50.9375 36.0437 51.8359 37.0718 52.6953 38.1366C51.7969 38.0999 50.8984 38.0632 50 38.0632C49.1016 38.0632 48.2031 38.0999 47.3047 38.1366C48.1641 37.0718 49.0625 36.0437 50 35.089ZM58.6719 42.7999L57.2656 40.5968C58.75 40.7804 60.1562 41.0007 61.4844 41.2944C61.0547 42.5062 60.5859 43.7913 60 45.0765C59.5703 44.3054 59.1406 43.5343 58.6719 42.7999ZM37.3828 36.8515C36.7188 32.996 37.2656 30.2788 38.8672 29.3976C39.2578 29.1772 39.7266 29.0671 40.2344 29.0671C42.5781 29.0671 45.5078 30.8663 48.4375 33.5835C47.0703 34.9788 45.7031 36.5944 44.375 38.3569C42.1094 38.5405 39.9609 38.871 37.9297 39.2749C37.6953 38.4304 37.5391 37.6226 37.3828 36.8515ZM27.7344 47.4999C27.7344 45.7741 29.9609 43.9382 33.8672 42.5796C34.6484 42.2858 35.5078 42.0288 36.3672 41.8085C36.9922 43.6444 37.7734 45.5905 38.7109 47.5366C37.7734 49.4827 36.9531 51.3921 36.3672 53.228C30.9766 51.7593 27.7344 49.5562 27.7344 47.4999ZM38.8672 65.6022C37.2656 64.721 36.7188 62.0038 37.3828 58.1483C37.5 57.3772 37.6953 56.5694 37.9297 55.7249C39.9609 56.1655 42.1094 56.4593 44.375 56.6429C45.7031 58.4054 47.0703 59.9843 48.4375 61.4163C45.5469 64.0968 42.6172 65.9327 40.2344 65.9327C39.7266 65.9327 39.2578 65.8226 38.8672 65.6022ZM62.6172 58.1483C63.2812 62.0038 62.7344 64.721 61.1328 65.6022C60.7422 65.8226 60.2734 65.9327 59.7656 65.9327C57.4219 65.9327 54.4922 64.1335 51.5625 61.4163C52.9297 60.021 54.2969 58.4054 55.625 56.6429C57.8906 56.4593 60.0391 56.1288 62.0703 55.7249C62.3047 56.5694 62.4609 57.3772 62.6172 58.1483ZM66.1328 52.4202C65.3516 52.714 64.4922 52.971 63.6328 53.1913C63.0078 51.3554 62.2266 49.4093 61.2891 47.4632C62.2266 45.5171 63.0469 43.6077 63.6328 41.7718C69.0234 43.2405 72.2656 45.4437 72.2656 47.4999C72.2656 49.2257 70 51.0616 66.1328 52.4202Z" fill="#61DAFB"/>
<defs>
<linearGradient id="paint0_linear_150_458" x1="50" y1="0" x2="50" y2="100" gradientUnits="userSpaceOnUse">
<stop stop-color="#D9EDED" stop-opacity="0.1"/>
<stop offset="1" stop-color="#CCEBEB" stop-opacity="0.01"/>
</linearGradient>
</defs>
</svg>
