<svg width="100" height="100" viewBox="0 0 100 100" fill="none" xmlns="http://www.w3.org/2000/svg">
<rect x="0.5" y="0.5" width="99" height="99" rx="7.5" fill="url(#paint0_linear_150_468)" stroke="#2B2B2C"/>
<path opacity="0.8" fill-rule="evenodd" clip-rule="evenodd" d="M29.531 63.8477C28.9333 63.8477 28.4411 63.6016 28.0896 63.1797C27.738 62.7578 27.6325 62.1602 27.7732 61.5625L34.3122 33.2617C34.5935 32.0664 35.7185 31.1523 36.9138 31.1523H69.4685C70.0661 31.1523 70.5583 31.3984 70.9099 31.8203C71.2614 32.2422 71.3669 32.8398 71.2263 33.4375L64.6872 61.7383C64.406 62.9336 63.281 63.8477 62.0857 63.8477H29.531Z" fill="url(#paint1_linear_150_468)"/>
<path fill-rule="evenodd" clip-rule="evenodd" d="M69.2934 31.5039H37.0199C36.0004 31.5039 35.016 32.3125 34.7699 33.332L28.3012 61.668C28.0551 62.6875 28.6879 63.4961 29.7074 63.4961H61.9809C63.0004 63.4961 63.9848 62.6875 64.2309 61.668L70.6996 33.3672C70.9457 32.3477 70.3129 31.5039 69.2934 31.5039Z" fill="url(#paint2_linear_150_468)"/>
<path fill-rule="evenodd" clip-rule="evenodd" d="M49.5704 56.043H57.4102C58.3243 56.043 59.0626 56.8164 59.0626 57.7656C59.0626 58.7148 58.3243 59.4883 57.4102 59.4883H49.5704C48.6563 59.4883 47.918 58.7148 47.918 57.7656C47.918 56.8164 48.6563 56.043 49.5704 56.043ZM54.668 48.3789C54.5274 48.6602 54.2462 48.9414 53.754 49.293L39.1641 59.7695C38.3555 60.332 37.2305 60.1211 36.5977 59.2773C36.0001 58.4336 36.1407 57.2734 36.9141 56.7109L50.0626 47.1836V46.9727L41.8008 38.1836C41.1329 37.4805 41.2032 36.3203 41.9415 35.582C42.7149 34.8789 43.8751 34.8789 44.543 35.582L54.4571 46.1289C55.0547 46.7969 55.0899 47.7109 54.668 48.3789Z" fill="#2C5591"/>
<path fill-rule="evenodd" clip-rule="evenodd" d="M54.2813 48.0273C54.1407 48.3086 53.8594 48.5898 53.3672 48.9414L38.8126 59.418C38.004 59.9805 36.879 59.7695 36.2462 58.9258C35.6485 58.082 35.7891 56.9219 36.5626 56.3594L49.711 46.832V46.6211L41.4493 37.832C40.7813 37.1289 40.8516 35.9687 41.5899 35.2305C42.3633 34.5273 43.5235 34.5273 44.1915 35.2305L54.1055 45.7773C54.7032 46.4102 54.7383 47.3242 54.2813 48.0273ZM49.3243 55.8672H57.1641C58.0782 55.8672 58.8165 56.6055 58.8165 57.4844C58.8165 58.3984 58.0782 59.1016 57.1641 59.1016H49.3243C48.4102 59.1016 47.6719 58.3633 47.6719 57.4844C47.6719 56.5703 48.4102 55.8672 49.3243 55.8672Z" fill="white"/>
<defs>
<linearGradient id="paint0_linear_150_468" x1="50" y1="0" x2="50" y2="100" gradientUnits="userSpaceOnUse">
<stop stop-color="#D9EDED" stop-opacity="0.1"/>
<stop offset="1" stop-color="#CCEBEB" stop-opacity="0.01"/>
</linearGradient>
<linearGradient id="paint1_linear_150_468" x1="60.8573" y1="57.6447" x2="35.9484" y2="35.3954" gradientUnits="userSpaceOnUse">
<stop stop-color="#A9C8FF"/>
<stop offset="1" stop-color="#C7E6FF"/>
</linearGradient>
<linearGradient id="paint2_linear_150_468" x1="35.9076" y1="35.4309" x2="60.2473" y2="57.046" gradientUnits="userSpaceOnUse">
<stop stop-color="#2D4664"/>
<stop offset="0.169" stop-color="#29405B"/>
<stop offset="0.445" stop-color="#1E2F43"/>
<stop offset="0.79" stop-color="#0C131B"/>
<stop offset="1"/>
</linearGradient>
</defs>
</svg>
