<svg width="100" height="100" viewBox="0 0 100 100" fill="none" xmlns="http://www.w3.org/2000/svg">
<rect x="0.5" y="0.5" width="99" height="99" rx="7.5" fill="url(#paint0_linear_150_466)" stroke="#2B2B2C"/>
<path d="M47.7622 29.7845C46.113 29.7923 44.5388 29.9325 43.1528 30.1778C39.0708 30.8989 38.3302 32.4083 38.3302 35.1923V38.8685H47.9759V40.0939H34.7098C31.9067 40.0939 29.452 41.7786 28.6841 44.9849C27.7981 48.6587 27.7591 50.9517 28.6841 54.788C29.3696 57.6439 31.0071 59.6782 33.8106 59.6782H37.1274V55.2712C37.1274 52.0872 39.8817 49.279 43.1532 49.279H52.788C55.47 49.279 57.6106 47.0704 57.6106 44.3775V35.1927C57.6106 32.5782 55.4052 30.6146 52.788 30.1782C51.1302 29.9025 49.411 29.7771 47.7622 29.7845ZM42.5458 32.7411C43.5419 32.7411 44.3559 33.5681 44.3559 34.5853C44.3559 35.5982 43.5423 36.4173 42.5458 36.4173C41.5458 36.4173 40.736 35.5982 40.736 34.5853C40.7356 33.5681 41.5458 32.7411 42.5458 32.7411Z" fill="url(#paint1_linear_150_466)"/>
<path d="M58.8133 40.0937V44.3772C58.8133 47.6976 55.9977 50.4925 52.7875 50.4925H43.1527C40.5137 50.4925 38.3301 52.7515 38.3301 55.3944V64.58C38.3301 67.1937 40.6027 68.7315 43.1527 69.4812C46.2059 70.3784 49.134 70.5409 52.7875 69.4812C55.2156 68.7776 57.6102 67.3628 57.6102 64.58V60.9034H47.9758V59.6776H62.4336C65.2367 59.6776 66.282 57.7226 67.257 54.7874C68.2641 51.7659 68.2207 48.8601 67.257 44.9843C66.5641 42.1933 65.241 40.0933 62.4336 40.0933L58.8133 40.0937ZM53.3941 63.3542C54.3945 63.3542 55.2043 64.1733 55.2043 65.187C55.2043 66.2034 54.3941 67.0304 53.3941 67.0304C52.398 67.0304 51.5844 66.2034 51.5844 65.187C51.5844 64.1733 52.398 63.3542 53.3941 63.3542Z" fill="url(#paint2_linear_150_466)"/>
<path opacity="0.444" d="M61.0109 71.7176C61.0109 73.1016 55.2234 74.2238 48.0848 74.2238C40.9457 74.2238 35.1582 73.1016 35.1582 71.7176C35.1582 70.3332 40.9453 69.2109 48.0848 69.2109C55.2234 69.2109 61.0109 70.3328 61.0109 71.7176Z" fill="url(#paint3_radial_150_466)"/>
<defs>
<linearGradient id="paint0_linear_150_466" x1="50" y1="0" x2="50" y2="100" gradientUnits="userSpaceOnUse">
<stop stop-color="#D9EDED" stop-opacity="0.1"/>
<stop offset="1" stop-color="#CCEBEB" stop-opacity="0.01"/>
</linearGradient>
<linearGradient id="paint1_linear_150_466" x1="27.0379" y1="30.934" x2="49.2855" y2="49.9066" gradientUnits="userSpaceOnUse">
<stop stop-color="#5A9FD4"/>
<stop offset="1" stop-color="#306998"/>
</linearGradient>
<linearGradient id="paint2_linear_150_466" x1="57.6558" y1="61.7" x2="49.6775" y2="50.5117" gradientUnits="userSpaceOnUse">
<stop stop-color="#FFD43B"/>
<stop offset="1" stop-color="#FFE873"/>
</linearGradient>
<radialGradient id="paint3_radial_150_466" cx="0" cy="0" r="1" gradientUnits="userSpaceOnUse" gradientTransform="translate(48.0325 71.6458) rotate(-90) scale(2.50716 11.021)">
<stop stop-color="#B8B8B8" stop-opacity="0.498"/>
<stop offset="1" stop-color="#7F7F7F" stop-opacity="0"/>
</radialGradient>
</defs>
</svg>
