<svg width="100" height="100" viewBox="0 0 100 100" fill="none" xmlns="http://www.w3.org/2000/svg">
<rect x="0.5" y="0.5" width="99" height="99" rx="7.5" fill="url(#paint0_linear_150_462)" stroke="#2B2B2C"/>
<path d="M24.8672 58.1311L22.835 35.3374H45.1657L43.1312 58.1276L33.9867 60.6626L24.8672 58.1311Z" fill="#E44D26"/>
<path d="M34 58.7251L41.3893 56.6764L43.1278 37.2012H34V58.7251Z" fill="#F16529"/>
<path d="M34.0003 45.6548H30.301L30.0454 42.792H34.0003V39.9966H26.9902L27.0573 40.7465L27.7442 48.4504H34.0003V45.6548ZM34.0003 52.9151L33.9879 52.9186L30.8746 52.0776L30.6757 49.8483H27.8692L28.2608 54.2377L33.9875 55.8273L34.0003 55.8239V52.9151Z" fill="#EBEBEB"/>
<path d="M33.9902 45.6548V48.4504H37.4326L37.1082 52.076L33.9902 52.9176V55.8261L39.7214 54.2377L39.7635 53.7654L40.4204 46.4056L40.4884 45.6548H39.7352H33.9902ZM33.9902 39.9966V42.792H40.7429L40.799 42.1639L40.9265 40.7465L40.9934 39.9966H33.9902Z" fill="white"/>
<path d="M54.9684 59.0728L52.8477 35.2852H76.152L74.0292 59.0692L64.4857 61.715L54.9684 59.0728Z" fill="#1572B6"/>
<path d="M64.5 59.6927L72.2117 57.5547L74.0259 37.23H64.5V59.6927Z" fill="#33A9DC"/>
<path d="M64.5 45.8483H68.3606L68.6272 42.8608H64.5V39.9434H71.8157L71.7457 40.7261L71.0285 48.7658H64.5V45.8483Z" fill="white"/>
<path d="M64.5171 53.4252L64.5042 53.429L61.2551 52.5517L61.0474 50.2249H58.1191L58.5277 54.8058L64.5038 56.4644L64.5171 56.4606V53.4252Z" fill="#EBEBEB"/>
<path d="M68.1132 48.6423L67.7617 52.5493L64.5078 53.4277V56.4631L70.4887 54.8055L70.5326 54.3125L71.0401 48.6423H68.1132Z" fill="white"/>
<path d="M64.5103 39.9434V42.8608H57.4633L57.4049 42.2052L57.272 40.7261L57.2021 39.9434H64.5103ZM64.5004 45.8488V48.7662H61.2922L61.2338 48.1106L61.1007 46.6316L61.0311 45.8488H64.5004Z" fill="#EBEBEB"/>
<defs>
<linearGradient id="paint0_linear_150_462" x1="50" y1="0" x2="50" y2="100" gradientUnits="userSpaceOnUse">
<stop stop-color="#D9EDED" stop-opacity="0.1"/>
<stop offset="1" stop-color="#CCEBEB" stop-opacity="0.01"/>
</linearGradient>
</defs>
</svg>
