<svg width="100" height="100" viewBox="0 0 100 100" fill="none" xmlns="http://www.w3.org/2000/svg">
<rect x="0.5" y="0.5" width="99" height="99" rx="7.5" fill="url(#paint0_linear_150_456)" stroke="#2B2B2C"/>
<path d="M65.6562 35.8631L51.6441 27.393C50.7604 26.869 49.6098 26.869 48.7191 27.393L34.5573 35.8631C33.6454 36.4093 33 37.4357 33 38.5337V55.4514C33 56.5494 33.6622 57.5762 34.5742 58.1253L38.3158 60.3377C40.1041 61.2547 40.7361 61.2547 41.5499 61.2547C44.1978 61.2547 45.7103 59.5878 45.7103 56.6804V39.9783C45.7103 39.7424 45.5924 39.3914 45.37 39.3914H43.5832C43.357 39.3914 42.8505 39.7424 42.8505 39.9779V56.68C42.8505 57.9688 41.7307 59.2513 39.6379 58.162L35.7718 55.8421C35.6371 55.766 35.5421 55.6129 35.5421 55.4514V38.5337C35.5421 38.3742 35.7184 38.2141 35.8541 38.1324L49.9701 29.6768C50.102 29.5991 50.2958 29.5991 50.4274 29.6768L64.3712 38.1304C64.5047 38.2141 64.4576 38.3693 64.4576 38.5337V55.4514C64.4576 55.6129 64.5158 55.77 64.3839 55.8477L50.3753 64.3083C50.2552 64.3834 50.1061 64.3834 49.9746 64.3083L46.3817 62.0757C46.2733 62.0102 46.1447 61.9867 46.0407 62.0473C45.0411 62.6371 44.8568 62.7155 43.9191 63.0539C43.6884 63.1376 43.3481 63.2828 44.0494 63.692L48.7515 66.5878C49.2005 66.8578 49.7097 66.9999 50.2281 67C50.7499 67 51.2609 66.8591 51.7111 66.5878L65.6559 58.1253C66.5678 57.5722 67 56.5494 67 55.4514V38.5337C67 37.4357 66.5679 36.4119 65.6562 35.8631ZM54.5789 52.7706C50.8529 52.7706 50.0321 51.7005 49.7585 49.7716C49.7267 49.5639 49.5574 49.3154 49.3543 49.3154H47.5333C47.308 49.3154 47.1268 49.5999 47.1268 49.8335C47.1268 52.3032 48.4166 55.2956 54.5792 55.2956C59.0402 55.2956 61.5978 53.4911 61.5978 50.2976C61.5978 47.1312 59.5429 46.3002 55.2166 45.7041C50.8436 45.1024 50.3994 44.7984 50.3994 43.7319C50.3994 42.8526 50.7756 41.6799 54.0136 41.6799C56.9068 41.6799 57.9732 42.3263 58.412 44.3564C58.4495 44.5473 58.6169 44.6842 58.806 44.6842H60.6344C60.7469 44.6842 60.8543 44.6369 60.9331 44.5532C61.0093 44.4633 61.0497 44.3505 61.0395 44.2294C60.7564 40.7335 58.5254 39.1043 54.0133 39.1043C49.9997 39.1043 47.6054 40.8688 47.6054 43.8265C47.6054 47.0346 49.9876 47.9211 53.8404 48.3177C58.4495 48.7881 58.8079 49.4894 58.8079 50.4332C58.8079 52.0723 57.5439 52.7706 54.5789 52.7706Z" fill="#83CD29"/>
<defs>
<linearGradient id="paint0_linear_150_456" x1="50" y1="0" x2="50" y2="100" gradientUnits="userSpaceOnUse">
<stop stop-color="#D9EDED" stop-opacity="0.1"/>
<stop offset="1" stop-color="#CCEBEB" stop-opacity="0.01"/>
</linearGradient>
</defs>
</svg>
