<svg width="83" height="33" viewBox="0 0 83 33" fill="none" xmlns="http://www.w3.org/2000/svg">
<path fill-rule="evenodd" clip-rule="evenodd" d="M39.6736 13.6949C37.8172 13.6949 36.2573 12.4328 35.8151 10.7249H31.2487C30.275 10.7249 29.444 11.4247 29.284 12.3794L29.1201 13.356C28.9647 14.2831 28.4928 15.09 27.8255 15.6749C28.4928 16.2598 28.9647 17.0667 29.1201 17.9938L29.284 18.9704C29.444 19.9251 30.275 20.6249 31.2487 20.6249H31.8311C32.2733 18.917 33.8332 17.6549 35.6896 17.6549C37.8899 17.6549 39.6736 19.4278 39.6736 21.6149C39.6736 23.802 37.8899 25.5749 35.6896 25.5749C33.8332 25.5749 32.2733 24.3128 31.8311 22.6049H31.2487C29.3012 22.6049 27.6392 21.2054 27.319 19.296L27.1552 18.3194C26.9952 17.3647 26.1642 16.6649 25.1904 16.6649H23.6121C23.1698 18.3728 21.6099 19.6349 19.7536 19.6349C17.8972 19.6349 16.3373 18.3728 15.8951 16.6649H13.6521C13.2099 18.3728 11.6499 19.6349 9.79357 19.6349C7.59327 19.6349 5.80957 17.862 5.80957 15.6749C5.80957 13.4878 7.59327 11.7149 9.79357 11.7149C11.6499 11.7149 13.2099 12.977 13.6521 14.6849H15.8951C16.3373 12.977 17.8972 11.7149 19.7536 11.7149C21.6099 11.7149 23.1698 12.977 23.6121 14.6849H25.1904C26.1642 14.6849 26.9952 13.9851 27.1552 13.0304L27.319 12.0538C27.6392 10.1444 29.3012 8.7449 31.2487 8.7449H35.8151C36.2573 7.03699 37.8172 5.7749 39.6736 5.7749C41.8739 5.7749 43.6576 7.54783 43.6576 9.7349C43.6576 11.922 41.8739 13.6949 39.6736 13.6949ZM39.6736 11.7149C40.7737 11.7149 41.6656 10.8284 41.6656 9.7349C41.6656 8.64145 40.7737 7.7549 39.6736 7.7549C38.5735 7.7549 37.6816 8.64145 37.6816 9.7349C37.6816 10.8284 38.5735 11.7149 39.6736 11.7149ZM9.79357 17.6549C10.8937 17.6549 11.7856 16.7684 11.7856 15.6749C11.7856 14.5814 10.8937 13.6949 9.79357 13.6949C8.69342 13.6949 7.80157 14.5814 7.80157 15.6749C7.80157 16.7684 8.69342 17.6549 9.79357 17.6549ZM21.7456 15.6749C21.7456 16.7684 20.8537 17.6549 19.7536 17.6549C18.6535 17.6549 17.7616 16.7684 17.7616 15.6749C17.7616 14.5814 18.6535 13.6949 19.7536 13.6949C20.8537 13.6949 21.7456 14.5814 21.7456 15.6749ZM37.6816 21.6149C37.6816 22.7084 36.7897 23.5949 35.6896 23.5949C34.5895 23.5949 33.6976 22.7084 33.6976 21.6149C33.6976 20.5214 34.5895 19.6349 35.6896 19.6349C36.7897 19.6349 37.6816 20.5214 37.6816 21.6149Z" fill="#EA4B71"/>
<path fill-rule="evenodd" clip-rule="evenodd" d="M62.5642 15.3361V15.2419C63.2592 14.8959 63.9543 14.2983 63.9543 13.1189C63.9543 11.4204 62.5484 10.3982 60.6056 10.3982C58.6152 10.3982 57.1936 11.4832 57.1936 13.1502C57.1936 14.2826 57.8569 14.8959 58.5837 15.2419V15.3361C57.7781 15.6193 56.8145 16.4685 56.8145 17.8839C56.8145 19.5979 58.2361 20.7932 60.5898 20.7932C62.9433 20.7932 64.3176 19.5979 64.3176 17.8839C64.3176 16.4685 63.3698 15.635 62.5642 15.3361ZM60.5898 11.8451C61.3796 11.8451 61.9639 12.3482 61.9639 13.1974C61.9639 14.0467 61.3637 14.5499 60.5898 14.5499C59.8157 14.5499 59.168 14.0467 59.168 13.1974C59.168 12.3325 59.7842 11.8451 60.5898 11.8451ZM60.5898 19.2834C59.6735 19.2834 58.9311 18.7017 58.9311 17.7108C58.9311 16.8145 59.5471 16.1382 60.5739 16.1382C61.585 16.1382 62.201 16.7987 62.201 17.7423C62.201 18.7017 61.4902 19.2834 60.5898 19.2834Z" fill="#D6D6D6"/>
<path d="M66.7549 20.636H68.7768V16.3743C68.7768 14.9746 69.6298 14.3613 70.5933 14.3613C71.5412 14.3613 72.2835 14.9904 72.2835 16.2799V20.636H74.3054V15.871C74.3054 13.8108 73.1049 12.6157 71.2253 12.6157C70.0405 12.6157 69.377 13.0875 68.9031 13.7008H68.7768L68.603 12.773H66.7549V20.636Z" fill="#D6D6D6"/>
<path d="M48.8568 20.636H46.835V12.773H48.683L48.8568 13.7008H48.9832C49.4571 13.0875 50.1206 12.6157 51.3053 12.6157C53.185 12.6157 54.3855 13.8108 54.3855 15.871V20.636H52.3636V16.2799C52.3636 14.9904 51.6212 14.3613 50.6734 14.3613C49.7099 14.3613 48.8568 14.9746 48.8568 16.3743V20.636Z" fill="#D6D6D6"/>
</svg>
